<svg width="20" height="20" viewBox="0 0 20 20" fill="none" xmlns="http://www.w3.org/2000/svg">
<g id="car">
<path id="Vector" d="M11.6667 13.3333H7.50008M15.8334 13.3333H18.3334V10.7083C18.334 10.51 18.2638 10.318 18.1355 10.1668C18.0072 10.0156 17.8292 9.91507 17.6334 9.88334L13.3334 9.16667L11.0834 6.16667C11.0058 6.06317 10.9051 5.97917 10.7894 5.92132C10.6737 5.86346 10.5461 5.83334 10.4167 5.83334H4.36675C4.05614 5.83118 3.75111 5.91586 3.48607 6.07783C3.22102 6.2398 3.00652 6.47261 2.86675 6.75001L2.20008 8.10834C1.8502 8.80385 1.66758 9.57145 1.66675 10.35V13.3333H3.33341" stroke="black" stroke-width="1.66667" stroke-linecap="round" stroke-linejoin="round"/>
<path id="Vector_2" d="M5.41659 15.8333C6.56718 15.8333 7.49992 14.9006 7.49992 13.75C7.49992 12.5994 6.56718 11.6667 5.41659 11.6667C4.26599 11.6667 3.33325 12.5994 3.33325 13.75C3.33325 14.9006 4.26599 15.8333 5.41659 15.8333Z" stroke="black" stroke-width="1.66667" stroke-linecap="round" stroke-linejoin="round"/>
<path id="Vector_3" d="M13.7501 15.8333C14.9007 15.8333 15.8334 14.9006 15.8334 13.75C15.8334 12.5994 14.9007 11.6667 13.7501 11.6667C12.5995 11.6667 11.6667 12.5994 11.6667 13.75C11.6667 14.9006 12.5995 15.8333 13.7501 15.8333Z" stroke="black" stroke-width="1.66667" stroke-linecap="round" stroke-linejoin="round"/>
</g>
</svg>
