<svg width="20" height="20" viewBox="0 0 20 20" fill="none" xmlns="http://www.w3.org/2000/svg">
<g id="Communication / Chat_Conversation">
<path id="Vector" d="M13.3333 6.66675H16.6667C17.1269 6.66675 17.5 7.03984 17.5 7.50008V16.6667L14.7225 14.3592C14.5729 14.2349 14.384 14.1667 14.1895 14.1667H7.5C7.03976 14.1667 6.66667 13.7936 6.66667 13.3334V10.8334M13.3333 6.66675V4.16675C13.3333 3.70651 12.9602 3.33341 12.5 3.33341H3.33333C2.8731 3.33341 2.5 3.70651 2.5 4.16675V13.3337L5.27751 11.0258C5.42712 10.9015 5.61603 10.8334 5.81055 10.8334H6.66667M13.3333 6.66675V10.0001C13.3333 10.4603 12.9602 10.8334 12.5 10.8334H6.66667" stroke="#808080" stroke-width="1.66667" stroke-linecap="round" stroke-linejoin="round"/>
</g>
</svg>
