<svg width="20" height="20" viewBox="0 0 20 20" fill="none" xmlns="http://www.w3.org/2000/svg">
<g id="Navigation / Globe">
<path id="Vector" d="M2.5 10.0001H6.66667M2.5 10.0001C2.5 14.1422 5.85786 17.5001 10 17.5001M2.5 10.0001C2.5 5.85794 5.85786 2.50008 10 2.50008M6.66667 10.0001H13.3333M6.66667 10.0001C6.66667 14.1422 8.15905 17.5001 10 17.5001M6.66667 10.0001C6.66667 5.85794 8.15905 2.50008 10 2.50008M13.3333 10.0001H17.5M13.3333 10.0001C13.3333 5.85794 11.8409 2.50008 10 2.50008M13.3333 10.0001C13.3333 14.1422 11.8409 17.5001 10 17.5001M17.5 10.0001C17.5 5.85794 14.1421 2.50008 10 2.50008M17.5 10.0001C17.5 14.1422 14.1421 17.5001 10 17.5001" stroke="#808080" stroke-width="1.66667" stroke-linecap="round" stroke-linejoin="round"/>
</g>
</svg>
