<svg width="40" height="40" viewBox="0 0 40 40" fill="none" xmlns="http://www.w3.org/2000/svg">
<g id="Frame 1948754774">
<path id="Vector" d="M0 20C0 14.4477 0 11.6702 0.77406 9.43636C2.18282 5.37565 5.37565 2.18282 9.43636 0.77406C11.6702 0 14.4477 0 20 0C25.5523 0 28.3298 0 30.5636 0.77406C34.6257 2.18282 37.8172 5.37427 39.2259 9.43636C40 11.6702 40 14.4464 40 20C40 25.5536 40 28.3298 39.2259 30.5636C37.8172 34.6257 34.6257 37.8172 30.5636 39.2259C28.3298 40 25.5536 40 20 40C14.4464 40 11.6702 40 9.43636 39.2259C5.37427 37.8172 2.18282 34.6257 0.77406 30.5636C0 28.3298 0 25.5536 0 20Z" fill="#A7E92F"/>
<path id="Vector_2" fill-rule="evenodd" clip-rule="evenodd" d="M12.4891 9.48328H12.4698C12.2132 9.48328 11.9924 9.48328 11.8144 9.50674C11.6254 9.53158 11.4433 9.58953 11.2956 9.73716C11.148 9.8848 11.09 10.0669 11.0652 10.2559C11.0417 10.4325 11.0417 10.6547 11.0417 10.9113V12.6388C11.0417 12.8955 11.0417 13.1162 11.0652 13.2942C11.0914 13.4846 11.148 13.6654 11.2956 13.813C11.4433 13.9607 11.6254 14.0186 11.8144 14.0434C11.991 14.0669 12.2132 14.0669 12.4698 14.0669H14.3229C14.5795 14.0669 14.8003 14.0669 14.9783 14.0434C15.1673 14.0186 15.3494 13.9607 15.4971 13.813C15.6447 13.6654 15.7027 13.4833 15.7275 13.2942C15.751 13.1176 15.751 12.8955 15.751 12.6388V10.9113C15.751 10.6547 15.751 10.4339 15.7275 10.2559C15.7013 10.0655 15.6447 9.8848 15.4971 9.73716C15.3494 9.58953 15.1673 9.53158 14.9783 9.50674C14.8017 9.48328 14.5795 9.48328 14.3229 9.48328H12.4891ZM12.4891 17.3687H12.4698C12.2132 17.3687 11.9924 17.3687 11.8144 17.3922C11.6254 17.4184 11.4433 17.475 11.2956 17.6226C11.148 17.7702 11.09 17.9524 11.0652 18.1414C11.0417 18.318 11.0417 18.5402 11.0417 18.7968V29.0362C11.0417 29.2928 11.0417 29.5136 11.0652 29.6916C11.0914 29.882 11.148 30.0628 11.2956 30.2104C11.4433 30.358 11.6254 30.416 11.8144 30.4408C11.991 30.4643 12.2132 30.4643 12.4698 30.4643H14.3229C14.5795 30.4643 14.8003 30.4643 14.9783 30.4408C15.1673 30.4146 15.3494 30.358 15.4971 30.2104C15.6447 30.0628 15.7027 29.8806 15.7275 29.6916C15.751 29.515 15.751 29.2928 15.751 29.0362V18.7968C15.751 18.5402 15.751 18.3194 15.7275 18.1414C15.7013 17.951 15.6447 17.7702 15.4971 17.6226C15.3494 17.475 15.1673 17.417 14.9783 17.3922C14.8017 17.3687 14.5795 17.3687 14.3229 17.3687H12.4891ZM20.6078 9.48328H22.6471C28.6947 9.48328 33.277 13.951 33.277 19.9751C33.277 25.9993 28.6947 30.467 22.6471 30.467H20.6078C20.3512 30.467 20.1304 30.467 19.9524 30.4436C19.762 30.4174 19.5812 30.3608 19.4336 30.2132C19.286 30.0655 19.228 29.8834 19.2032 29.6944C19.1797 29.5178 19.1797 29.2956 19.1797 29.039V27.3529C19.1797 27.0962 19.1797 26.8755 19.2032 26.6975C19.228 26.5071 19.286 26.3263 19.4336 26.1787C19.5812 26.031 19.7634 25.9731 19.9524 25.9482C20.129 25.9248 20.3512 25.9248 20.6078 25.9248H22.6471C24.3967 25.9248 25.8731 25.3094 26.912 24.2677C27.951 23.2273 28.5678 21.7427 28.5678 19.9765C28.5678 18.2104 27.9496 16.7258 26.912 15.6854C25.8731 14.6437 24.3967 14.0283 22.6485 14.0283H20.6092C20.3525 14.0283 20.1318 14.0283 19.9538 14.0048C19.7634 13.98 19.5826 13.922 19.435 13.7744C19.2874 13.6268 19.2294 13.4446 19.2046 13.2556C19.1811 13.079 19.1811 12.8568 19.1811 12.6002V10.9141C19.1811 10.6575 19.1811 10.4367 19.2046 10.2587C19.2294 10.0683 19.2874 9.88756 19.435 9.73992C19.5826 9.59229 19.7648 9.53434 19.9538 9.5095C20.1304 9.48604 20.3525 9.48604 20.6092 9.48604L20.6078 9.48328Z" fill="white"/>
</g>
</svg>
