<svg width="9" height="13" viewBox="0 0 9 13" fill="none" xmlns="http://www.w3.org/2000/svg">
<path d="M3.41 13L0.17 7.348V6.016H1.25C1.682 6.016 2.06 5.956 2.384 5.836C2.72 5.704 2.996 5.518 3.212 5.278C3.44 5.038 3.596 4.75 3.68 4.414H0.17V3.082H3.662C3.59 2.77 3.464 2.494 3.284 2.254C3.116 2.014 2.888 1.828 2.6 1.696C2.324 1.552 1.988 1.48 1.592 1.48H0.17V0.147999H8.288V1.48H5.462C5.666 1.708 5.834 1.954 5.966 2.218C6.11 2.482 6.206 2.77 6.254 3.082H8.288V4.414H6.29C6.17 5.302 5.828 5.998 5.264 6.502C4.7 6.994 3.974 7.33 3.086 7.51L6.614 13H3.41Z" fill="black"/>
</svg>
