<svg width="20" height="20" viewBox="0 0 20 20" fill="none" xmlns="http://www.w3.org/2000/svg">
<g id="Interface / Settings">
<g id="Vector">
<path d="M16.9583 7.43569L16.6531 7.26592C16.6057 7.23956 16.5824 7.22633 16.5595 7.21262C16.332 7.0763 16.1401 6.88795 16.0002 6.66261C15.9861 6.63994 15.9728 6.61616 15.9457 6.56916C15.9186 6.52223 15.9048 6.49845 15.8922 6.4749C15.7666 6.24047 15.6987 5.97921 15.6947 5.7133C15.6943 5.68657 15.6943 5.65926 15.6953 5.60496L15.7012 5.25057C15.7108 4.68346 15.7156 4.39903 15.6359 4.14377C15.5651 3.91703 15.4466 3.70819 15.2885 3.53096C15.1097 3.33063 14.8623 3.1877 14.3669 2.90222L13.9554 2.66509C13.4613 2.3804 13.2142 2.23801 12.9519 2.18373C12.7199 2.1357 12.4804 2.13793 12.2492 2.18983C11.9883 2.24841 11.7443 2.39451 11.2566 2.68655L11.2538 2.68788L10.9589 2.86443C10.9123 2.89234 10.8887 2.90641 10.8653 2.91941C10.6334 3.04834 10.3746 3.11963 10.1094 3.12814C10.0826 3.129 10.0555 3.129 10.0011 3.129C9.94706 3.129 9.91871 3.129 9.89204 3.12814C9.62627 3.11959 9.36685 3.04791 9.13459 2.91845C9.11118 2.9054 9.08803 2.89122 9.04131 2.86317L8.74458 2.68503C8.25352 2.39022 8.00762 2.2426 7.74523 2.18373C7.51309 2.13164 7.27281 2.1302 7.03992 2.17884C6.77696 2.23377 6.5298 2.37722 6.03549 2.66411L6.03329 2.66509L5.6269 2.90095L5.6224 2.9037C5.13254 3.18802 4.88701 3.33052 4.70975 3.53003C4.55245 3.70708 4.43487 3.9156 4.3645 4.14173C4.28495 4.39734 4.28919 4.68239 4.29878 5.25217L4.30473 5.60605C4.30563 5.65964 4.3072 5.68627 4.30681 5.71262C4.30286 5.97908 4.23405 6.24087 4.10812 6.47572C4.09567 6.49894 4.08225 6.52217 4.05545 6.56856C4.02863 6.61499 4.01565 6.63808 4.00174 6.66048C3.86114 6.88702 3.66845 7.07647 3.43944 7.21302C3.41679 7.22653 3.39292 7.23952 3.34601 7.26551L3.04471 7.43249C2.5434 7.71029 2.29281 7.84932 2.11046 8.04716C1.94915 8.22219 1.82729 8.42979 1.75291 8.65589C1.66882 8.91148 1.66889 9.19807 1.6702 9.77121L1.67126 10.2396C1.67255 10.809 1.67433 11.0934 1.7586 11.3473C1.83316 11.5719 1.95412 11.7782 2.11453 11.9522C2.29585 12.1488 2.54395 12.287 3.04145 12.5638L3.34007 12.7299C3.39089 12.7582 3.41646 12.7721 3.44097 12.7869C3.6679 12.9235 3.85908 13.1125 3.99848 13.3377C4.01354 13.362 4.028 13.3873 4.05691 13.4378C4.08547 13.4877 4.10007 13.5126 4.11328 13.5376C4.23551 13.769 4.30095 14.0261 4.30541 14.2878C4.30589 14.3161 4.30548 14.3447 4.30451 14.4021L4.29878 14.7418C4.28912 15.3135 4.28492 15.5997 4.36494 15.856C4.43572 16.0827 4.55403 16.2916 4.71219 16.4688C4.89096 16.6691 5.13879 16.812 5.63423 17.0975L6.04565 17.3345C6.53969 17.6192 6.78662 17.7615 7.04891 17.8157C7.28095 17.8638 7.52054 17.8619 7.75174 17.81C8.01305 17.7513 8.2579 17.6047 8.74702 17.3119L9.04187 17.1353C9.08852 17.1074 9.11214 17.0934 9.13551 17.0804C9.36741 16.9514 9.62603 16.8798 9.89123 16.8713C9.91795 16.8704 9.94514 16.8704 9.9995 16.8704C10.054 16.8704 10.0812 16.8704 10.1079 16.8713C10.3737 16.8798 10.6339 16.9517 10.8662 17.0812C10.8866 17.0926 10.9071 17.1049 10.943 17.1265L11.2565 17.3147C11.7476 17.6095 11.993 17.7567 12.2554 17.8156C12.4875 17.8677 12.728 17.8698 12.9609 17.8211C13.2238 17.7662 13.4714 17.6225 13.9655 17.3358L14.378 17.0963C14.8682 16.8119 15.1139 16.6692 15.2913 16.4696C15.4486 16.2926 15.5663 16.0841 15.6367 15.858C15.7156 15.6043 15.7109 15.3214 15.7014 14.7598L15.6953 14.3936C15.6944 14.34 15.6943 14.3134 15.6946 14.287C15.6986 14.0205 15.7663 13.7586 15.8922 13.5237C15.9046 13.5005 15.9182 13.4771 15.9449 13.4309C15.9717 13.3845 15.9856 13.3613 15.9995 13.3389C16.1401 13.1124 16.333 12.9228 16.562 12.7862C16.5843 12.7729 16.6074 12.7601 16.6532 12.7347L16.6547 12.734L16.956 12.567C17.4573 12.2892 17.7084 12.15 17.8908 11.9522C18.0521 11.7772 18.1738 11.5699 18.2482 11.3438C18.3317 11.0897 18.3311 10.8047 18.3298 10.2383L18.3287 9.75982C18.3274 9.19051 18.3267 8.90608 18.2425 8.65223C18.1679 8.42765 18.0463 8.22126 17.8859 8.04729C17.7047 7.85084 17.4563 7.71263 16.9597 7.4364L16.9583 7.43569Z" stroke="#808080" stroke-width="1.66667" stroke-linecap="round" stroke-linejoin="round"/>
<path d="M6.66694 9.99989C6.66694 11.8408 8.15933 13.3332 10.0003 13.3332C11.8412 13.3332 13.3336 11.8408 13.3336 9.99989C13.3336 8.15894 11.8412 6.66655 10.0003 6.66655C8.15933 6.66655 6.66694 8.15894 6.66694 9.99989Z" stroke="#808080" stroke-width="1.66667" stroke-linecap="round" stroke-linejoin="round"/>
</g>
</g>
</svg>
