<svg width="20" height="20" viewBox="0 0 20 20" fill="none" xmlns="http://www.w3.org/2000/svg">
<g id="Warning / Shield_Check">
<path id="Vector" d="M12.4999 7.50008L9.16659 10.8334L7.49992 9.16675M16.6666 8.47096C16.6666 13.9445 12.5265 16.3985 10.7714 17.1929L10.7692 17.1939C10.5846 17.2774 10.4921 17.3193 10.2823 17.3553C10.1495 17.3781 9.8512 17.3781 9.71837 17.3553C9.50777 17.3192 9.41428 17.2771 9.22821 17.1929C7.47308 16.3985 3.33325 13.9445 3.33325 8.47095V5.16691C3.33325 4.23349 3.33325 3.76643 3.51491 3.40991C3.6747 3.09631 3.92948 2.84152 4.24308 2.68174C4.5996 2.50008 5.06666 2.50008 6.00008 2.50008H14.0001C14.9335 2.50008 15.3996 2.50008 15.7561 2.68174C16.0697 2.84152 16.3253 3.09631 16.4851 3.40991C16.6666 3.76608 16.6666 4.23258 16.6666 5.16417V8.47096Z" stroke="#808080" stroke-width="1.66667" stroke-linecap="round" stroke-linejoin="round"/>
</g>
</svg>
