<svg width="64" height="64" viewBox="0 0 64 64" fill="none" xmlns="http://www.w3.org/2000/svg">
<g id="User / User_Circle">
<path id="Vector" d="M45.911 51.5527C42.4931 47.7355 37.5271 45.3333 32 45.3333C26.4729 45.3333 21.5065 47.7355 18.0885 51.5527M32 56C18.7452 56 8 45.2548 8 32C8 18.7452 18.7452 8 32 8C45.2548 8 56 18.7452 56 32C56 45.2548 45.2548 56 32 56ZM32 37.3333C27.5817 37.3333 24 33.7516 24 29.3333C24 24.9151 27.5817 21.3333 32 21.3333C36.4183 21.3333 40 24.9151 40 29.3333C40 33.7516 36.4183 37.3333 32 37.3333Z" stroke="black" stroke-width="4" stroke-linecap="round" stroke-linejoin="round"/>
</g>
</svg>
